# xmcd CD database file
#
# Track frame offsets:
#	150
#	23777
#	50310
#	91552
#	115700
#	137655
#	159592
#	201980
#	229555
#	234902
#	267025
#
# Disc length: 3842 seconds
#
# Revision: 0
# Processed by: cddbd v1.5.1PL0 Copyright (c) Steve Scherf et al.
# Submitted via: CDex 1.51
#
DISCID=7c0f000b
DTITLE=Eldritch - BlooD Breed Calls My Name
DYEAR=1900
DGENRE=Heavy Metal
TTITLE0=Shadow Fire
TTITLE1=Infection
TTITLE2=Blood Breed Calls My Name
TTITLE3=Massacre Song
TTITLE4=Pig Blood Blues
TTITLE5=Will You Smile For Me
TTITLE6=Valis
TTITLE7=Lifemaker
TTITLE8=Lost And One
TTITLE9=Moon Hawk Project
TTITLE10=Dog Eat Dog
EXTD=
EXTT0=
EXTT1=
EXTT2=
EXTT3=
EXTT4=
EXTT5=
EXTT6=
EXTT7=
EXTT8=
EXTT9=
EXTT10=
PLAYORDER=
